<svg width="24" height="24" viewBox="0 0 24 24" fill="none" xmlns="http://www.w3.org/2000/svg">
<path fill-rule="evenodd" clip-rule="evenodd" d="M11.6635 13.5747C9.40335 13.3851 7.61461 11.3306 7.61461 8.84276C7.61461 6.26131 9.59642 4.17787 12.0051 4.17787C14.4341 4.17787 16.3956 6.22067 16.3956 8.82243C16.3956 9.93224 16.0424 10.9565 15.4515 11.7688C15.2479 11.8028 15.0143 11.8235 14.7449 11.8261C14.599 11.4829 14.3489 11.1945 14.0341 11.0013C14.4823 10.4288 14.7593 9.66581 14.7593 8.82243C14.7593 7.04388 13.5194 5.71251 12.0051 5.71251C10.5009 5.71251 9.25088 7.07437 9.25088 8.84276C9.25088 10.3944 10.1961 11.6587 11.4082 11.9769C11.3527 12.1496 11.3227 12.3337 11.3227 12.5247C11.3227 12.9167 11.449 13.2798 11.6635 13.5747ZM12.9018 13.4886C13.5453 13.3426 14.1378 13.0426 14.645 12.6263C14.4767 12.6253 14.2993 12.6182 14.1122 12.6046L14.0766 12.6653C14.0803 12.64 14.0829 12.6144 14.0846 12.5885C14.0858 12.5684 14.0865 12.5481 14.0866 12.5277L14.0866 12.5247C14.0866 12.2249 13.9531 11.9564 13.7425 11.7758C13.6484 11.695 13.5389 11.6318 13.419 11.5912C13.0694 11.8385 12.6711 11.9971 12.2487 12.0416C12.1685 12.1843 12.1227 12.3491 12.1227 12.5247C12.1227 12.9989 12.4568 13.3949 12.9018 13.4886ZM18.3876 23H5.61247C3.92539 23 3.1225 22.4919 3.1225 21.3739C3.1225 18.7112 6.4865 14.8593 12.0051 14.8593C17.5136 14.8593 20.8776 18.7112 20.8776 21.3739C20.8776 22.4919 20.0747 23 18.3876 23ZM4.75877 21.1809C4.75877 21.3943 4.87056 21.4654 5.1348 21.4654H18.8754C19.1397 21.4654 19.2412 21.3943 19.2412 21.1809C19.2412 19.5039 16.6598 16.3939 12.0051 16.3939C7.3402 16.3939 4.75877 19.5039 4.75877 21.1809Z" fill="#090D14"/>
<path d="M17.0417 3.03504C18.0763 4.04165 18.7606 5.32532 19.0184 6.70681C19.4524 6.89081 19.7567 7.32072 19.7567 7.82172V10.1336C19.7567 10.8022 19.2148 11.3441 18.5463 11.3441C18.533 11.3441 18.5198 11.3439 18.5066 11.3435C17.3013 13.4159 14.8431 13.5023 13.7351 13.2799C13.5645 13.4233 13.3446 13.5097 13.1046 13.5097C12.5623 13.5097 12.1227 13.0687 12.1227 12.5247C12.1227 11.9807 12.5623 11.5397 13.1046 11.5397C13.6469 11.5397 14.0866 11.9807 14.0866 12.5247C14.0866 12.5724 14.0832 12.6194 14.0766 12.6653L14.1122 12.6047C16.3252 12.765 17.173 12.0153 17.8072 11.0924C17.5205 10.871 17.3358 10.5239 17.3358 10.1336V7.82172C17.3358 7.39287 17.5588 7.01611 17.8952 6.80108C17.3472 4.11629 14.9126 2.09247 11.9922 2.09247C9.07498 2.09247 6.64252 4.11191 6.09102 6.79238C6.4351 7.00584 6.66424 7.38702 6.66424 7.82172V10.1336C6.66424 10.8022 6.12229 11.3441 5.45376 11.3441C4.78523 11.3441 4.24329 10.8022 4.24329 10.1336V7.82172C4.24329 7.32735 4.53965 6.9022 4.96441 6.71424C5.22116 5.32992 5.90611 4.04346 6.94255 3.03504C8.28178 1.73203 10.0982 1 11.9921 1C13.8861 1 15.7025 1.73203 17.0417 3.03504Z" fill="#DC2626"/>
</svg>
