<svg width="25" height="24" viewBox="0 0 25 24" fill="none" xmlns="http://www.w3.org/2000/svg">
<path d="M6.96002 4.05726L6.82661 4.05725C6.22474 4.05725 5.64752 4.29634 5.22193 4.72193C4.79634 5.14752 4.55725 5.72474 4.55725 6.32661V19.9428C4.55725 20.5446 4.79634 21.1218 5.22193 21.5474C5.64752 21.973 6.22474 22.2121 6.82661 22.2121H18.1734C18.7753 22.2121 19.3525 21.973 19.7781 21.5474C20.2037 21.1218 20.4427 20.5446 20.4427 19.9428V6.32661C20.4427 5.72474 20.2037 5.14752 19.7781 4.72193C19.3525 4.29634 18.7753 4.05725 18.1734 4.05725" stroke="black" stroke-width="1.5" stroke-linecap="round" stroke-linejoin="round"/>
<path d="M14.7694 10.8653H11.9327C11.4813 10.8653 11.0484 11.0446 10.7292 11.3638C10.41 11.683 10.2307 12.1159 10.2307 12.5673C10.2307 13.0188 10.41 13.4517 10.7292 13.7709C11.0484 14.09 11.4813 14.2694 11.9327 14.2694H13.0674C13.5188 14.2694 13.9517 14.4487 14.2709 14.7679C14.5901 15.0871 14.7694 15.52 14.7694 15.9714C14.7694 16.4228 14.5901 16.8557 14.2709 17.1749C13.9517 17.4941 13.5188 17.6734 13.0674 17.6734H10.2307M12.5 17.6734V18.8081M12.5 9.73065V10.8653M9.09598 4.05726C9.09598 3.45539 9.33507 2.87817 9.76066 2.45258C10.1862 2.02699 10.7635 1.7879 11.3653 1.7879H13.6347C14.2366 1.7879 14.8138 2.02699 15.2394 2.45258C15.665 2.87817 15.904 3.45539 15.904 4.05726C15.904 4.65913 15.665 5.23635 15.2394 5.66194C14.8138 6.08752 14.2366 6.32662 13.6347 6.32662H11.3653C10.7635 6.32662 10.1862 6.08752 9.76066 5.66194C9.33507 5.23635 9.09598 4.65913 9.09598 4.05726Z" stroke="#DC2626" stroke-width="1.5" stroke-linecap="round" stroke-linejoin="round"/>
</svg>
